:SAMPLES-PER-SECOND 30
:FULLY-SPECIFIED
:DEGREES
110
root  34.73380081 36.56279196 -14.22204596 10.1890583 -5.449050903 3.997092962
lowerback  -7.687200069 -0.4890310168 -1.197130203
upperback  -4.05907011 -0.02453470044 -4.413469791
thorax  0.1146069989 0.1791699976 -3.892430067
lowerneck  -4.284520149 -15.83419991 -10.94270039
upperneck  8.253950119 -21.63430023 11.84819984
head  5.661910057 -10.34220028 3.591029882
lclavicle  0 -4.497500157e-015 -2.743230041e-014
lhumerus  -48.14419937 30.07500076 61.75320053
lradius  0.006001632661 -6.507048965e-006 29.55960083
lwrist  4.824992743e-007 -3.790274832e-007 -29.80699921
lhand  -4.401178415e-031 -36.64839935 -10.60620022
lfingers  90 7.125020027 -90
lthumb  94.68388691 -25.45208844 100.7937566
rclavicle  0 -4.497500157e-015 -2.743230041e-014
rhumerus  9.222229958 -40.28889465 -33.57149887
rradius  -5.16745672e-007 2.214343908e-008 87.20670319
rwrist  -2.867388866e-005 0.1003057435 -175.5579987
rhand  -1.770669225e-031 4.35255003 -6.058350086
rfingers  -90 -7.125020027 -90
rthumb  -84.33202646 -9.803057305 -59.76133789
rfemur  -12.22824955 14.6078949 12.07575989
rtibia  -0.5508143902 -1.961034298 19.0099926
rfoot  1.356864333 -23.01154709 -33.83668137
rtoes  4.139940128 19.58402002 -102.1854993
lfemur  -4.663835526 -16.10662079 -22.83785057
ltibia  6.605288029 -0.707213223 8.037731171
lfoot  0.7985357642 -21.04118729 36.77890015
ltoes  -8.484978277 -18.17802515 -115.5569266
111
root  34.73442558 36.56271086 -14.2212665 10.19747448 -5.398046494 4.032621861
lowerback  -7.646090031 -0.4633140266 -1.160429835
upperback  -4.079840183 0.006701359991 -4.426710129
thorax  0.07206270099 0.1945829988 -3.924599886
lowerneck  -4.237120152 -15.86330032 -10.96800041
upperneck  8.202810287 -21.67360115 11.86130047
head  5.646830082 -10.36470032 3.598140001
lclavicle  0 -4.497500157e-015 -2.743230041e-014
lhumerus  -48.16839981 30.04829979 61.72790146
lradius  0.006001632661 -6.507048965e-006 29.52210236
lwrist  4.824992743e-007 -3.790274832e-007 -29.81340027
lhand  -4.401264094e-031 -36.64989853 -10.69419956
lfingers  90 7.125020027 -90
lthumb  94.70286272 -25.53851019 100.8032285
rclavicle  0 -4.497500157e-015 -2.743230041e-014
rhumerus  10.23670006 -40.43700027 -33.39799881
rradius  -5.16745672e-007 2.214343908e-008 85.82830048
rwrist  -2.867388866e-005 0.09982900321 -175.4700012
rhand  -1.771065158e-031 4.517710209 -5.952439785
rfingers  -90 -7.125020027 -90
rthumb  -84.23601832 -9.903200934 -59.59040488
rfemur  -12.25546169 14.57497215 12.06089401
rtibia  -0.5802859664 -1.954491615 19.06373405
rfoot  1.347240567 -22.97112465 -33.82657623
rtoes  4.12918766 19.58620463 -102.1534222
lfemur  -4.505725384 -16.11771393 -22.9466362
ltibia  6.739856243 -0.7243672013 7.763524532
lfoot  0.7724019289 -20.90953827 36.73420715
ltoes  -8.482834951 -18.17899878 -115.5500565
112
root  34.73562406 36.56199898 -14.22059968 10.19220543 -5.354234219 4.071402073
lowerback  -7.602720261 -0.4357270896 -1.11838007
upperback  -4.105060101 0.04087910056 -4.448090076
thorax  0.02384340018 0.2116439939 -3.968159914
lowerneck  -4.205649853 -15.89649963 -10.97719955
upperneck  8.173609734 -21.72089958 11.88290024
head  5.641419888 -10.38829994 3.602730036
lclavicle  0 -4.497500157e-015 -2.743230041e-014
lhumerus  -48.17950058 29.94890022 61.74020004
lradius  0.005914821289 -6.507048965e-006 29.52350044
lwrist  4.824992743e-007 -3.790274832e-007 -29.74749947
lhand  -4.402459248e-031 -36.67079926 -10.71790028
lfingers  90 7.125020027 -90
lthumb  94.71760771 -25.56101271 100.8277603
rclavicle  0 -4.497500157e-015 -2.743230041e-014
rhumerus  11.22970295 -40.57960129 -33.28420258
rradius  -5.16745672e-007 2.214343908e-008 84.49449921
rwrist  -2.867388866e-005 0.09934975207 -175.0350037
rhand  -0 4.259829998 -5.772789955
rfingers  -90 -7.125020027 -90
rthumb  -84.20963152 -10.04506132 -59.82698361
rfemur  -12.25061798 14.57529545 12.03549099
rtibia  -0.6023279428 -1.970507979 19.0890789
rfoot  1.32417357 -22.98032379 -33.87554169
rtoes  4.137385143 19.58453966 -102.1778769
lfemur  -4.487914562 -16.17145538 -22.99720192
ltibia  6.760021687 -0.7585785985 7.72962141
lfoot  0.7535808682 -20.83711624 36.67752075
ltoes  -8.471400572 -18.18418778 -115.5134113
113
root  34.73596648 36.56076747 -14.21994637 10.17622185 -5.294866085 4.105279446
lowerback  -7.586249828 -0.4196830392 -1.093980193
upperback  -4.12680006 0.06116110086 -4.45223999
thorax  -0.006601030007 0.2219610065 -3.984859943
lowerneck  -4.166069984 -15.91819954 -11.06050014
upperneck  8.145950317 -21.75419807 11.95499992
head  5.646113396 -10.40499973 3.632960081
lclavicle  0 -4.497500157e-015 -2.743230041e-014
lhumerus  -48.22129822 29.85659981 61.77370071
lradius  0.005832157563 -6.507048965e-006 29.56279945
lwrist  4.824992743e-007 -3.790274832e-007 -29.6760006
lhand  -0 -36.64609909 -10.67959976
lfingers  90 7.125020027 -90
lthumb  94.69805158 -25.52427044 100.7978726
rclavicle  0 -4.497500157e-015 -2.743230041e-014
rhumerus  12.27130032 -40.7743988 -33.25230026
rradius  -5.16745672e-007 2.214343908e-008 83.0802002
rwrist  -2.867388866e-005 0.09886802733 -174.9109955
rhand  -1.770169652e-031 4.134659767 -5.91203022
rfingers  -90 -7.125020027 -90
rthumb  -84.31228334 -9.918152404 -59.96177989
rfemur  -12.21128464 14.56855488 12.01361465
rtibia  -0.6180123687 -2.0049932 19.07477188
rfoot  1.305278182 -23.02180862 -33.94824982
rtoes  4.145581786 19.5828714 -102.2023311
lfemur  -4.472828865 -16.21761322 -23.02898026
ltibia  6.76723671 -0.7843862772 7.722929955
lfoot  0.7649034858 -20.79977989 36.6721611
ltoes  -8.464479844 -18.18732424 -115.4912365
114
root  34.74147827 36.55842458 -14.21949432 10.12793827 -5.248703003 4.09075737
lowerback  -7.62678957 -0.3951649666 -1.119839787
upperback  -4.150670052 0.1023769975 -4.476240158
thorax  -0.006327929907 0.2452169955 -3.992419958
lowerneck  -4.127470016 -15.95680046 -11.12959957
upperneck  8.120019913 -21.80950165 12.00230026
head  5.652609825 -10.43330002 3.651299953
lclavicle  0 -4.497500157e-015 -2.743230041e-014
lhumerus  -48.2364006 30.18759918 61.49860001
lradius  0.005767212249 -6.507048965e-006 29.3010006
lwrist  4.824992743e-007 -3.790274832e-007 -30.13349915
lhand  -4.400852762e-031 -36.6427002 -10.64449978
lfingers  90 7.125020027 -90
lthumb  94.68919206 -25.48996077 100.791116
rclavicle  0 -4.497500157e-015 -2.743230041e-014
rhumerus  13.19139767 -40.93450165 -33.1529007
rradius  -5.16745672e-007 2.214343908e-008 81.74949646
rwrist  -2.867388866e-005 0.0983838737 -174.6840057
rhand  -0 4.397830009 -5.803209782
rfingers  -90 -7.125020027 -90
rthumb  -84.18997383 -10.02578989 -59.69453654
rfemur  -12.09926605 14.58552361 12.03015137
rtibia  -0.6007621884 -1.996850371 18.97072411
rfoot  1.332649112 -22.98197746 -34.02367401
rtoes  4.164633308 19.57898044 -102.2591779
lfemur  -4.610156059 -16.19559288 -22.94756699
ltibia  6.614613056 -0.7528916001 8.046719551
lfoot  0.8151420951 -21.03749847 36.64942169
ltoes  -8.480561392 -18.18003123 -115.5427693
115
root  34.74334657 36.55718105 -14.21904376 10.1129961 -5.188827038 4.130603313
lowerback  -7.594449997 -0.3578039408 -0.9926866889
upperback  -4.175469875 0.1482010037 -4.549270153
thorax  -0.04737349972 0.2675949931 -4.137650013
lowerneck  -4.093830109 -15.99009991 -11.11900043
upperneck  8.103540421 -21.86320114 12.06470013
head  5.654409885 -10.45580006 3.664050102
lclavicle  0 -4.497500157e-015 -2.743230041e-014
lhumerus  -48.19189835 30.1996994 61.34249878
lradius  0.005719440058 -6.507048965e-006 29.15770149
lwrist  4.824992743e-007 -3.790274832e-007 -30.33530045
lhand  -4.415756863e-031 -36.90190125 -10.64080048
lfingers  90 7.125020027 -90
lthumb  94.80967357 -25.47720897 101.0679183
rclavicle  0 -4.497500157e-015 -2.743230041e-014
rhumerus  14.06489944 -41.1332016 -33.10630035
rradius  -5.16745672e-007 2.214343908e-008 80.38880157
rwrist  -2.867388866e-005 0.09789733589 -174.3950043
rhand  -1.770763393e-031 4.392399788 -5.688370228
rfingers  -90 -7.125020027 -90
rthumb  -84.13249605 -10.12464082 -59.68947687
rfemur  -12.07624149 14.54239941 12.00989342
rtibia  -0.6246932149 -2.01969862 18.98405647
rfoot  1.325214744 -22.99573898 -34.0334053
rtoes  4.156970481 19.5805477 -102.2363119
lfemur  -4.548082352 -16.23484612 -23.00603104
ltibia  6.660373211 -0.7424963117 7.952685833
lfoot  0.827641964 -21.05383873 36.66086197
ltoes  -8.470718292 -18.18449713 -115.511225
116
root  34.74622411 36.55696478 -14.21879145 10.12048435 -5.148735046 4.171228409
lowerback  -7.579639912 -0.3219369948 -0.9167433977
upperback  -4.173689842 0.1926479936 -4.590799809
thorax  -0.05093140155 0.2889330089 -4.220900059
lowerneck  -4.064290047 -16.01399994 -11.09939957
upperneck  8.036529541 -21.89829826 12.11069965
head  5.636050224 -10.47200012 3.674890041
lclavicle  0 -4.497500157e-015 -2.743230041e-014
lhumerus  -48.14210129 30.06990051 61.36840057
lradius  0.0056882957 -6.507048965e-006 29.14390182
lwrist  4.824992743e-007 -3.790274832e-007 -30.3010006
lhand  -4.412612917e-031 -36.84749985 -10.31579971
lfingers  90 7.125020027 -90
lthumb  94.71563725 -25.16011269 100.9804015
rclavicle  0 -4.497500157e-015 -2.743230041e-014
rhumerus  15.0883007 -41.3758049 -33.1155014
rradius  -5.16745672e-007 2.214343908e-008 78.90619659
rwrist  -2.867388866e-005 0.09740843624 -174.1399994
rhand  -0 4.399310112 -5.553919792
rfingers  -90 -7.125020027 -90
rthumb  -84.0617661 -10.24101557 -59.67051149
rfemur  -12.10376453 14.50108242 11.97507858
rtibia  -0.649944067 -2.046478987 19.03621101
rfoot  1.284426212 -23.03346825 -34.06926727
rtoes  4.159773165 19.57997482 -102.2446749
lfemur  -4.472475052 -16.30753899 -23.08556557
ltibia  6.733271122 -0.7923824787 7.804426193
lfoot  0.7971875668 -20.88846016 36.63352203
ltoes  -8.505497192 -18.16868879 -115.6227148
